:SAMPLES-PER-SECOND 30
:FULLY-SPECIFIED
:DEGREES
98
root  -32.7113 40.7787 -7.18469 -168.469 -86.6149 167.717
RightUpLeg  4.35845 -14.4003 -1.82556
RightLeg  22.0095 2.59918 1.05417
RightFoot  -8.99114 -0.108836 2.03923
RightToes  3.49245e-010 0 -3.6325e-017
Spine  4.59646 3.95938 9.67761
Spine1  5.40246 6.34497 -7.9291
HEad  -12.1077 -6.29302 1.66096
LeftShoulder1  7.23098 -10.4275 -45.2286
LeftArm  12.5495 36.596 -19.1321
LeftForeArm  -175.042 -62.0798 -162.774
LeftHand  -0.244104 0.0205437 5.32207
RightShoulder  5.71477 9.03538 39.4663
RightArm  7.06792 -15.5435 38.9796
RightForeArm  153.292 64.8959 157.239
RightHand  0.144156 -10.7302 -4.91044
LeftUpLeg  -22.0559 7.34796 -1.53349
LeftLeg  33.8269 6.6715 5.31739
LeftFoot  -11.2715 0.0712925 -5.91118
LeftToes  1.68253e-010 -2.29257e-011 3.59052e-011
99
root  -34.9605 41.4393 -7.28778 -148.372 -87.767 148.702
RightUpLeg  7.58432 -16.2805 -3.91644
RightLeg  19.0706 4.33947 1.88185
RightFoot  -1.32595 -0.416964 4.78976
RightToes  3.49245e-010 0 -3.6325e-017
Spine  2.4418 4.83189 8.78995
Spine1  5.4832 7.01468 -8.32877
HEad  -9.89921 -8.47324 1.62017
LeftShoulder1  7.16719 -10.7037 -43.9016
LeftArm  12.0972 41.8733 -16.5642
LeftForeArm  -175.371 -61.2849 -163.29
LeftHand  -0.244104 0.0205437 5.32207
RightShoulder  5.5714 9.14301 38.012
RightArm  12.102 -14.6905 38.7199
RightForeArm  166.097 63.1264 160.146
RightHand  -0.37575 -11.7898 5.66503
LeftUpLeg  -21.9017 11.4649 -4.61415
LeftLeg  19.8944 5.18373 1.90451
LeftFoot  -10.4918 0.106423 -5.82975
LeftToes  1.68253e-010 -2.29257e-011 3.59052e-011
100
root  -37.143 41.6733 -7.35593 -115.662 -88.8102 115.81
RightUpLeg  9.21712 -15.6621 -4.20747
RightLeg  21.4043 2.62202 0.863476
RightFoot  3.48086 -0.682371 5.45754
RightToes  3.49245e-010 0 -3.6325e-017
Spine  1.94266 5.0286 8.53469
Spine1  5.84367 7.187 -8.45656
HEad  -9.18116 -9.66572 1.49827
LeftShoulder1  7.22669 -11.1067 -42.9971
LeftArm  10.1575 46.0848 -14.5778
LeftForeArm  -177.013 -60.6304 -163.577
LeftHand  -0.244104 0.0205437 5.32207
RightShoulder  5.68562 9.49332 37.7094
RightArm  16.3011 -13.655 37.4845
RightForeArm  173.86 61.1936 162.37
RightHand  -0.680879 -11.175 11.9713
LeftUpLeg  -20.5049 9.45806 -4.68565
LeftLeg  10.3304 7.27138 -1.52753
LeftFoot  -11.3654 0.0646427 -5.71878
LeftToes  1.68253e-010 -2.29257e-011 3.59052e-011
101
root  -39.2755 41.4211 -7.3939 -51.7549 -89.3789 50.8562
RightUpLeg  9.17503 -11.6939 -3.19902
RightLeg  28.6664 -2.00853 -1.45457
RightFoot  4.61089 -0.72126 5.36971
RightToes  3.49245e-010 0 -3.6325e-017
Spine  2.54137 4.7631 8.25854
Spine1  6.14146 6.86379 -8.01879
HEad  -9.22778 -9.67655 1.44066
LeftShoulder1  7.2397 -11.3265 -42.4025
LeftArm  6.85762 49.4156 -13.7858
LeftForeArm  -178.394 -60.3889 -163.61
LeftHand  -0.244104 0.0205437 5.32207
RightShoulder  5.93377 9.89825 38.2227
RightArm  20.1795 -12.3165 35.7025
RightForeArm  171.172 60.1749 162.808
RightHand  -0.590108 -11.0731 10.2974
LeftUpLeg  -18.7729 2.81713 -2.75205
LeftLeg  6.11304 12.4651 -3.61387
LeftFoot  -13.3057 -0.0216289 -6.27585
LeftToes  1.68253e-010 -2.29257e-011 3.59052e-011
102
root  -41.397 40.7269 -7.39816 -46.3098 -89.3964 44.1283
RightUpLeg  7.99936 -7.35562 -2.76876
RightLeg  38.763 -4.96447 -4.52822
RightFoot  3.59409 -0.668343 5.28249
RightToes  3.49245e-010 0 -3.6325e-017
Spine  2.99918 4.65021 7.57441
Spine1  6.81319 6.64575 -7.18063
HEad  -9.30784 -8.89276 1.19645
LeftShoulder1  7.13965 -11.3492 -41.7055
LeftArm  2.81713 52.0733 -14.4393
LeftForeArm  -178.36 -60.1628 -163.758
LeftHand  -0.244104 0.0205437 5.32207
RightShoulder  6.06305 10.1401 38.3783
RightArm  22.7511 -11.2346 34.8356
RightForeArm  166.531 59.9717 162.52
RightHand  -0.471507 -11.6262 7.28461
LeftUpLeg  -17.8013 2.99092 -3.53435
LeftLeg  7.27423 11.9187 -2.8667
LeftFoot  -11.9697 0.0299798 -4.91498
LeftToes  1.68253e-010 -2.29257e-011 3.59052e-011
103
root  -43.4768 39.8208 -7.40491 -125.842 -88.4503 122.194
RightUpLeg  6.03347 -3.11662 -4.25118
RightLeg  49.585 -5.96839 -7.80337
RightFoot  2.21445 -0.540384 4.66707
RightToes  3.49245e-010 0 -3.6325e-017
Spine  3.42796 4.75552 5.39324
Spine1  8.00795 6.62597 -5.98047
HEad  -10.1415 -7.8276 0.791984
LeftShoulder1  6.8234 -10.9671 -40.8412
LeftArm  -1.30142 52.8049 -16.2183
LeftForeArm  -177.897 -60.1964 -163.786
LeftHand  -0.244104 0.0205437 5.32207
RightShoulder  5.98787 9.9755 38.3658
RightArm  22.8244 -10.4471 35.0933
RightForeArm  166.797 60.5701 162.162
RightHand  -0.665715 -12.7502 8.94483
LeftUpLeg  -17.8239 8.28278 -6.81504
LeftLeg  12.6991 8.27323 -0.632281
LeftFoot  -6.24697 -0.0212621 0.62405
LeftToes  1.68253e-010 -2.29257e-011 3.59052e-011
104
root  -45.3901 38.9191 -7.44688 -114.932 -85.8993 109.448
RightUpLeg  3.10111 0.288285 -7.49427
RightLeg  60.0014 -5.52133 -10.6962
RightFoot  1.00954 -0.317245 2.98307
RightToes  3.49245e-010 0 -3.6325e-017
Spine  5.02233 4.47342 1.417
Spine1  8.92943 6.1166 -4.59727
HEad  -12.505 -6.5689 0.750222
LeftShoulder1  6.37347 -10.0153 -40.8478
LeftArm  -4.97289 49.7658 -17.7308
LeftForeArm  -178.948 -62.0746 -162.394
LeftHand  -0.244104 0.0205437 5.32207
RightShoulder  5.94854 9.53365 39.5182
RightArm  20.4134 -9.85314 35.6844
RightForeArm  168.206 63.6756 159.896
RightHand  -0.856184 -13.0508 11.4029
LeftUpLeg  -18.8799 14.4073 -11.6426
LeftLeg  21.1327 3.3587 2.17493
LeftFoot  -2.00948 -0.585727 7.69596
LeftToes  1.68253e-010 -2.29257e-011 3.59052e-011
105
root  -47.0402 38.2089 -7.49082 -105.005 -83.6732 97.661
RightUpLeg  -1.14496 2.43171 -10.7482
RightLeg  68.5427 -4.19133 -12.3545
RightFoot  -0.468118 -0.0877103 0.882562
RightToes  3.49245e-010 0 -3.6325e-017
Spine  8.00618 3.57282 -2.25887
Spine1  8.92689 4.87379 -3.79012
HEad  -15.3065 -5.05243 1.24311
LeftShoulder1  6.31988 -9.25768 -43.0216
LeftArm  -8.16359 43.2712 -17.7069
LeftForeArm  178.459 -66.4671 -158.406
LeftHand  -0.244104 0.0205437 5.32207
RightShoulder  6.17936 9.33917 41.8514
RightArm  16.1223 -10.2433 36.3968
RightForeArm  163.297 70.5454 151.327
RightHand  -0.663124 -12.7221 9.00206
LeftUpLeg  -19.0195 12.265 -13.4977
LeftLeg  29.9758 5.8453 3.97251
LeftFoot  -4.3481 -0.660432 11.1476
LeftToes  1.68253e-010 -2.29257e-011 3.59052e-011
106
root  -48.4938 37.9392 -7.48884 -101.374 -82.7696 92.7498
RightUpLeg  -6.41889 3.75517 -12.3462
RightLeg  73.0436 -3.29702 -13.0848
RightFoot  -2.19437 0.00143451 -0.180293
RightToes  3.49245e-010 0 -3.6325e-017
Spine  10.9913 2.41778 -3.5484
Spine1  8.35228 3.4817 -3.90997
HEad  -16.7134 -3.45715 1.58876
LeftShoulder1  6.94935 -9.54179 -46.4314
LeftArm  -11.2324 36.1701 -17.4927
LeftForeArm  176.489 -71.1799 -152.602
LeftHand  -0.244104 0.0205437 5.32207
RightShoulder  6.54246 9.55693 43.6928
RightArm  10.5258 -12.453 36.9131
RightForeArm  144.999 78.1613 128.355
RightHand  -0.409506 -13.9588 4.38538
LeftUpLeg  -17.4565 11.2243 -14.0961
LeftLeg  35.091 6.84341 5.48725
LeftFoot  -9.85142 -0.0826094 10.2356
LeftToes  1.68253e-010 -2.29257e-011 3.59052e-011
107
root  -49.9195 38.1775 -7.45663 -102.981 -83.3522 93.9473
RightUpLeg  -11.7104 4.22119 -12.0601
RightLeg  72.3113 -3.69923 -13.7735
RightFoot  -3.66193 -0.0291103 0.0671976
RightToes  3.49245e-010 0 -3.6325e-017
Spine  12.707 1.36631 -3.06265
Spine1  7.63323 2.25263 -3.8419
HEad  -16.7167 -1.95024 1.1794
LeftShoulder1  7.57246 -10.1949 -48.2418
LeftArm  -13.364 30.7214 -19.7734
LeftForeArm  178.478 -73.289 -149.375
LeftHand  -0.244104 0.0205437 5.32207
RightShoulder  6.6936 9.80141 43.8924
RightArm  5.93044 -16.3733 35.8784
RightForeArm  113.684 80.9797 91.8327
RightHand  -0.313506 -15.0639 2.65561
LeftUpLeg  -14.1676 10.8209 -12.9547
LeftLeg  35.0366 7.19625 5.75771
LeftFoot  -12.9309 0.195904 8.12038
LeftToes  1.68253e-010 -2.29257e-011 3.59052e-011
108
root  -51.3984 38.755 -7.44694 -104.379 -84.7194 95.7319
RightUpLeg  -16.1128 3.2465 -10.6588
RightLeg  66.8734 -5.14369 -13.6977
RightFoot  -4.52661 -0.0407014 0.160245
RightToes  3.49245e-010 0 -3.6325e-017
Spine  13.2634 0.543875 -2.81683
Spine1  6.65544 0.836683 -1.93532
HEad  -16.7647 -0.418305 0.0542526
LeftShoulder1  7.72023 -10.4692 -48.2117
LeftArm  -13.1487 26.9448 -24.0876
LeftForeArm  -175.837 -72.3991 -151.649
LeftHand  -0.244104 0.0205437 5.32207
RightShoulder  6.48204 9.72865 42.6669
RightArm  5.44638 -21.1844 32.0046
RightForeArm  99.5062 80.7003 78.3442
RightHand  -0.178148 -13.0754 1.44494
LeftUpLeg  -10.1754 10.5739 -10.9864
LeftLeg  31.6626 7.18093 5.11068
LeftFoot  -13.036 0.183166 7.01708
LeftToes  1.68253e-010 -2.29257e-011 3.59052e-011
